<svg width="37" height="37" viewBox="0 0 37 37" fill="none" xmlns="http://www.w3.org/2000/svg">
    <path
        d="M36.223 32.4879C36.4692 32.7334 36.6647 33.0252 36.798 33.3464C36.9314 33.6676 37 34.012 37 34.3598C37 34.7077 36.9314 35.0521 36.798 35.3733C36.6647 35.6945 36.4692 35.9863 36.223 36.2318C35.7244 36.724 35.0521 37 34.3516 37C33.6511 37 32.9788 36.724 32.4802 36.2318L18.5 22.2474L4.51978 36.2318C4.02123 36.724 3.34892 37 2.64842 37C1.94791 37 1.2756 36.724 0.77705 36.2318C0.530752 35.9863 0.335328 35.6945 0.201984 35.3733C0.0686404 35.0521 0 34.7077 0 34.3598C0 34.012 0.0686404 33.6676 0.201984 33.3464C0.335328 33.0252 0.530752 32.7334 0.77705 32.4879L14.7573 18.5036L0.77705 4.51922C0.280733 4.02275 0.00190393 3.3494 0.00190393 2.6473C0.00190393 2.29965 0.0703583 1.95541 0.203358 1.63422C0.336358 1.31304 0.531299 1.0212 0.77705 0.775376C1.0228 0.529551 1.31455 0.334553 1.63564 0.201514C1.95673 0.0684747 2.30087 0 2.64842 0C3.35032 0 4.02347 0.278911 4.51978 0.775376L18.5 14.7597L32.4802 0.775376C32.9765 0.278911 33.6497 0 34.3516 0C35.0535 0 35.7266 0.278911 36.223 0.775376C36.7193 1.27184 36.9981 1.94519 36.9981 2.6473C36.9981 3.3494 36.7193 4.02275 36.223 4.51922L22.2427 18.5036L36.223 32.4879Z"
        fill="black"/>
</svg>
