<svg width="48" height="32" viewBox="0 0 48 32" fill="none" xmlns="http://www.w3.org/2000/svg">
<path d="M2.66667 32C1.91111 32 1.27822 31.744 0.768 31.232C0.256 30.7218 0 30.0889 0 29.3333C0 28.5778 0.256 27.9449 0.768 27.4347C1.27822 26.9227 1.91111 26.6667 2.66667 26.6667H45.3333C46.0889 26.6667 46.7218 26.9227 47.232 27.4347C47.744 27.9449 48 28.5778 48 29.3333C48 30.0889 47.744 30.7218 47.232 31.232C46.7218 31.744 46.0889 32 45.3333 32H2.66667ZM2.66667 18.6667C1.91111 18.6667 1.27822 18.4107 0.768 17.8987C0.256 17.3884 0 16.7556 0 16C0 15.2444 0.256 14.6107 0.768 14.0987C1.27822 13.5884 1.91111 13.3333 2.66667 13.3333H45.3333C46.0889 13.3333 46.7218 13.5884 47.232 14.0987C47.744 14.6107 48 15.2444 48 16C48 16.7556 47.744 17.3884 47.232 17.8987C46.7218 18.4107 46.0889 18.6667 45.3333 18.6667H2.66667ZM2.66667 5.33333C1.91111 5.33333 1.27822 5.07822 0.768 4.568C0.256 4.056 0 3.42222 0 2.66667C0 1.91111 0.256 1.27733 0.768 0.765334C1.27822 0.255112 1.91111 0 2.66667 0H45.3333C46.0889 0 46.7218 0.255112 47.232 0.765334C47.744 1.27733 48 1.91111 48 2.66667C48 3.42222 47.744 4.056 47.232 4.568C46.7218 5.07822 46.0889 5.33333 45.3333 5.33333H2.66667Z" fill="black"/>
</svg>
